<?xml version="1.0" standalone="no"?>
<!DOCTYPE svg PUBLIC "-//W3C//DTD SVG 20010904//EN"
 "http://www.w3.org/TR/2001/REC-SVG-20010904/DTD/svg10.dtd">
<svg version="1.0" xmlns="http://www.w3.org/2000/svg"
 width="95.000000pt" height="96.000000pt" viewBox="0 0 95.000000 96.000000"
 preserveAspectRatio="xMidYMid meet">

<g transform="translate(0.000000,96.000000) scale(0.100000,-0.100000)"
fill="#000000" stroke="none">
<path d="M364 927 c-28 -14 -55 -30 -59 -37 -4 -6 -28 -21 -53 -31 -94 -40
-171 -126 -216 -239 -11 -28 -20 -83 -23 -147 -7 -132 16 -214 85 -304 83
-109 203 -163 362 -162 196 1 357 100 437 269 87 183 44 398 -109 539 -90 84
-187 128 -292 132 -70 4 -88 1 -132 -20z m251 -277 c70 -67 101 -168 75 -245
-27 -81 -117 -151 -210 -162 -141 -17 -249 86 -250 235 0 68 15 113 55 167 24
30 33 34 83 38 31 2 92 4 134 3 74 -1 79 -3 113 -36z"/>
</g>
</svg>
