<?xml version="1.0" standalone="no"?>
<!DOCTYPE svg PUBLIC "-//W3C//DTD SVG 20010904//EN"
 "http://www.w3.org/TR/2001/REC-SVG-20010904/DTD/svg10.dtd">
<svg version="1.0" xmlns="http://www.w3.org/2000/svg"
 width="91.000000pt" height="89.000000pt" viewBox="0 0 91.000000 89.000000"
 preserveAspectRatio="xMidYMid meet">

<g transform="translate(0.000000,89.000000) scale(0.100000,-0.100000)"
fill="#000000" stroke="none">
<path d="M679 851 c-55 -36 -194 -183 -245 -260 -2 -2 -40 29 -86 69 -90 78
-190 147 -225 156 -55 14 -113 -27 -113 -79 0 -25 22 -51 142 -167 l142 -138
-27 -33 c-110 -136 -177 -252 -177 -308 0 -42 49 -81 103 -81 45 0 60 13 190
165 33 39 63 74 67 79 5 4 25 -11 46 -35 129 -148 217 -209 302 -209 35 0 49
6 74 30 27 27 30 36 25 72 -7 52 -29 82 -103 138 -32 25 -90 74 -127 110 l-69
65 120 125 c129 135 152 170 152 226 0 28 -8 44 -34 70 -45 45 -93 46 -157 5z"/>
</g>
</svg>
